<?xml version="1.0" encoding="UTF-8"?>
<svg version="1.1" xmlns="http://www.w3.org/2000/svg" width="512" height="512">
<path d="M0 0 C107.58 0 215.16 0 326 0 C326 13.50001385 326 13.50001385 325.56550694 18.33967113 C325.42012937 20.0026388 325.42012937 20.0026388 325.27181488 21.69920176 C325.16355045 22.8759754 325.05528602 24.05274905 324.94374084 25.2651825 C324.83010694 26.54723739 324.71647304 27.82929228 324.59939569 29.15019733 C324.28684645 32.6748411 323.9677324 36.19886302 323.64745533 39.72281182 C323.30204478 43.53636829 322.96284066 47.3504776 322.62284851 51.16452026 C321.95711268 58.62195607 321.28576258 66.07887616 320.61254222 73.53563961 C319.82813571 82.22666839 319.04962862 90.91822261 318.27142125 99.6098083 C316.88254074 115.11989368 315.48877194 130.62953578 314.09204102 146.13891602 C312.73781495 161.17640911 311.38636453 176.21414782 310.03833008 191.25219727 C309.91372437 192.64222972 309.91372437 192.64222972 309.78660137 194.06034365 C309.45266352 197.78565366 309.1187349 201.51096451 308.78482098 205.23627667 C307.34329501 221.31795323 305.89960884 237.39943597 304.4555212 253.48088267 C304.22211964 256.08019484 303.98876051 258.67951081 303.75540853 261.27882743 C302.93824601 270.38057716 302.12039367 279.48226421 301.30074722 288.58379062 C300.96194999 292.34586841 300.62342696 296.10797024 300.28571701 299.8701458 C299.91927976 303.9521154 299.55134204 308.03394836 299.1832428 312.11576843 C299.07720909 313.29923424 298.97117538 314.48270005 298.86192852 315.70202845 C298.30964582 321.81062429 297.70261761 327.90681251 297 334 C274.97618651 340.55270977 252.82366616 346.64384534 230.68066406 352.77825928 C225.58757617 354.18958095 220.49497938 355.6026724 215.40234375 357.015625 C209.65025934 358.61140815 203.8981268 360.20701646 198.1456604 361.80142212 C197.27510199 362.04296209 196.40454357 362.28450207 195.5076046 362.53336143 C193.80419457 363.00494416 192.10025655 363.47462448 190.39576149 363.94227028 C186.24842922 365.08273334 182.11656544 366.25696818 177.99920654 367.50164795 C177.19323721 367.74004583 176.38726788 367.97844372 175.55687523 368.22406578 C174.05208125 368.67038585 172.55067032 369.12837147 171.05391884 369.60096169 C162.85699265 372.00386726 155.62637401 369.79912701 147.64770508 367.53491211 C146.74702301 367.28427002 145.84634094 367.03362793 144.91836548 366.77539062 C141.95055677 365.94808119 138.98507442 365.11273421 136.01953125 364.27734375 C133.92581751 363.69207928 131.83195791 363.1073364 129.73796082 362.52308655 C124.215742 360.98088715 118.69543773 359.43194297 113.17553711 357.88146973 C107.66430427 356.33452368 102.15146578 354.79332505 96.63867188 353.25195312 C90.2469463 351.46463923 83.85537148 349.67680299 77.46487427 347.88510132 C68.47785629 345.36600289 59.49003107 342.85074109 50.48974609 340.37939453 C49.78777823 340.18656293 49.08581038 339.99373133 48.36257076 339.79505634 C45.22610057 338.9341621 42.0888228 338.07636848 38.95039368 337.22264099 C37.3849305 336.79447838 37.3849305 336.79447838 35.7878418 336.35766602 C34.90041794 336.11645523 34.01299408 335.87524445 33.09867859 335.62672424 C31 335 31 335 29 334 C28.56950653 331.86905122 28.56950653 331.86905122 28.31130791 328.99957657 C28.20923743 327.91675982 28.10716695 326.83394307 28.00200343 325.71831369 C27.84739677 323.92297638 27.84739677 323.92297638 27.68966675 322.09136963 C27.5746907 320.84275697 27.45971465 319.59414432 27.34125447 318.30769491 C27.0266132 314.8705616 26.72042969 311.43286537 26.41785422 307.99466151 C26.09519118 304.35118384 25.7617983 300.70868803 25.42954826 297.06607437 C24.87885718 291.01346787 24.33456314 284.96031766 23.7951889 278.9066925 C23.06576862 270.72041512 22.32410253 262.53530097 21.57867432 254.35046387 C20.22787722 239.49522666 18.89496161 224.63840939 17.56594163 209.7812103 C17.25431685 206.29817843 16.9424141 202.81517144 16.63055038 199.33216095 C15.58951479 187.70429477 14.54909345 176.07637392 13.51072884 164.44826889 C13.24739084 161.49936641 12.98405141 158.55046406 12.72070312 155.6015625 C12.65531199 154.86932371 12.58992086 154.13708492 12.52254818 153.38265708 C11.44994339 141.37322764 10.3726982 129.36421889 9.29366256 117.35536572 C8.17303628 104.88281978 7.0564146 92.40992043 5.94373596 79.93666291 C5.32383418 72.98857965 4.70224624 66.04065691 4.07611465 59.09313202 C3.49171689 52.60854587 2.91276322 46.1234898 2.33747292 39.63808823 C2.12647055 37.26922367 1.91366574 34.90051883 1.69888496 32.53199387 C1.40524862 29.2907699 1.11823517 26.0490224 0.83279419 22.80706787 C0.7473951 21.88181297 0.661996 20.95655807 0.57400906 20.00326514 C-0.00957746 13.25892235 0 6.83838605 0 0 Z " fill="#E44D26" transform="translate(93,116)"/>
<path d="M0 0 C67.32 0 134.64 0 204 0 C202.82051282 20.05128205 202.82051282 20.05128205 202 29.5 C201.9175 30.51191406 201.835 31.52382812 201.75 32.56640625 C201.6675 33.52417969 201.585 34.48195312 201.5 35.46875 C201.4278125 36.31888672 201.355625 37.16902344 201.28125 38.04492188 C201 40 201 40 200 41 C198.00038545 41.09672695 195.99729807 41.1218703 193.99534607 41.12025452 C192.03699326 41.12231651 192.03699326 41.12231651 190.03907776 41.12442017 C188.57870461 41.12088055 187.11833169 41.11724573 185.65795898 41.11352539 C184.13073732 41.11324353 182.60351553 41.11340123 181.07629395 41.1139679 C176.91738312 41.11425591 172.75850089 41.10835855 168.59959674 41.10139394 C164.25805476 41.09516106 159.91651219 41.09455665 155.57496643 41.09336853 C147.34786418 41.09025502 139.12077514 41.08204137 130.89367872 41.07201904 C121.52986936 41.06085851 112.16605938 41.05534761 102.80224502 41.05032361 C83.53482251 41.03985877 64.26741231 41.02225895 45 41 C45.09087891 41.95777344 45.18175781 42.91554687 45.27539062 43.90234375 C45.61459579 47.48777197 45.94887452 51.07364594 46.28173828 54.65966797 C46.42592189 56.20569047 46.57140527 57.75159238 46.71826172 59.29736328 C46.9302587 61.53126343 47.13743147 63.76556908 47.34375 66 C47.40937134 66.68054443 47.47499268 67.36108887 47.54260254 68.06225586 C47.97069666 72.76698445 48 77.23267687 48 82 C97.17 82 146.34 82 197 82 C196.67 85.63 196.34 89.26 196 93 C195.05790828 103.39541919 194.12167018 113.79136634 193.1875 124.1875 C193.12105034 124.92689945 193.05460068 125.6662989 192.98613739 126.4281044 C190.54432146 153.60959441 188.21296393 180.79881944 186 208 C174.04349765 211.55220736 162.10958673 215.04197748 149.984375 217.97265625 C144.41314773 219.36546307 138.94097836 221.09922324 133.45166016 222.78051758 C126.81047542 224.79858911 120.13427509 226.53380509 113.3828125 228.140625 C110.02845043 228.91502891 110.02845043 228.91502891 107.0546875 230.171875 C100.08178461 232.06222719 93.15767563 229.3044328 86.5 227.1875 C80.36330483 225.28783186 74.24586019 223.50433828 68 222 C61.06644388 220.32252674 54.27223161 218.30861148 47.45263672 216.21972656 C40.81109096 214.20168382 34.13460615 212.4662737 27.3828125 210.859375 C24.19014263 210.04830413 21.11766696 209.05796508 18 208 C17.28134508 200.49329117 16.57006583 192.98590898 15.86376953 185.47802734 C15.62293183 182.92708737 15.38044218 180.37630277 15.13623047 177.82568359 C14.78432672 174.14721216 14.43848161 170.46821218 14.09375 166.7890625 C13.9843811 165.65949127 13.87501221 164.52992004 13.7623291 163.36611938 C13.66222534 162.28575409 13.56212158 161.20538879 13.45898438 160.09228516 C13.37015991 159.15518707 13.28133545 158.21808899 13.18981934 157.25259399 C12.93242649 152.84211381 13 148.41798444 13 144 C26.53 144 40.06 144 54 144 C54.99 154.56 55.98 165.12 57 176 C59.866875 176.70125 62.73375 177.4025 65.6875 178.125 C74.17672326 180.21436066 82.57550539 182.54373154 90.93041992 185.11962891 C99.37333583 187.63573514 105.96320994 187.0346984 114.375 184.8125 C115.24261963 184.58981445 116.11023926 184.36712891 117.00415039 184.13769531 C123.55397267 182.43563671 130.05706965 180.58395191 136.53076172 178.61254883 C140.00427248 177.55755084 143.43630205 176.68199635 147 176 C147.04789169 175.39500671 147.09578339 174.79001343 147.14512634 174.16668701 C147.64405485 167.87235301 148.14768516 161.57840779 148.65405273 155.28466797 C148.84243555 152.9354807 149.02961757 150.58619682 149.21557617 148.23681641 C149.48300923 144.86074142 149.75475262 141.48503694 150.02734375 138.109375 C150.10967758 137.05820496 150.19201141 136.00703491 150.27684021 134.92401123 C150.35684769 133.94329651 150.43685516 132.96258179 150.51928711 131.95214844 C150.58812607 131.09055115 150.65696503 130.22895386 150.72789001 129.34124756 C151 127 151 127 152 123 C105.14 123 58.28 123 10 123 C9.01 111.12 8.02 99.24 7 87 C6.19884434 77.68761185 6.19884434 77.68761185 5.38643837 68.37623978 C5.16258323 65.82621869 4.94005309 63.2760845 4.71781921 60.72592163 C4.08905098 53.51112784 3.45947629 46.29640703 2.82592773 39.08203125 C2.43121502 34.58628591 2.03901149 30.09032773 1.64845848 25.59421921 C1.50148112 23.90769661 1.35357273 22.22125486 1.20467567 20.53490067 C0.99906264 18.20527087 0.79665299 15.87538307 0.5949707 13.54541016 C0.53422867 12.86612961 0.47348663 12.18684906 0.41090393 11.48698425 C0.07995925 7.6187247 0 3.90163381 0 0 Z " fill="#FEFEFE" transform="translate(154,185)"/>
<path d="M0 0 C43.89 0 87.78 0 133 0 C133 6.36280219 132.91862517 11.74285689 132.09375 17.90625 C131.30305251 24.12735861 130.68203712 30.33968738 130.21875 36.59375 C130.12847534 37.81094727 130.12847534 37.81094727 130.03637695 39.05273438 C129.85491108 41.53497196 129.67680484 44.0174263 129.5 46.5 C128.78356629 56.55967667 127.98426902 66.57287015 126.74145508 76.58227539 C125.69460675 85.19648472 125.11629969 93.84633742 124.5 102.5 C123.79741929 112.36516218 123.03145884 122.18669664 121.81410217 132.0032959 C120.5507344 142.40108534 119.69127145 152.84211992 118.76782227 163.27441406 C118.43810475 166.9931792 118.10308301 170.71144054 117.76757812 174.4296875 C116.42255055 189.41048082 116.42255055 189.41048082 115.4375 204.41796875 C115.06352469 211.42103465 114.37784202 218.34870265 113.5625 225.3125 C112.3258921 236.28955373 111.43342714 247.25823547 110.70385742 258.27954102 C110.11850805 266.90772671 109.2491244 275.44216897 108 284 C100.54373441 286.99768438 92.85799283 289.10475246 85.125 291.25 C83.69038056 291.65078446 82.25581092 292.05174724 80.82128906 292.45288086 C71.10541671 295.16387391 61.36955311 297.79687234 51.62329102 300.39648438 C42.2508866 302.90685883 32.9217898 305.56134508 23.59863281 308.24829102 C20.40032766 309.16993642 17.20080284 310.08706835 14 311 C12.95956543 311.29712891 11.91913086 311.59425781 10.84716797 311.90039062 C9.86506348 312.17560547 8.88295898 312.45082031 7.87109375 312.734375 C7.00282959 312.97897461 6.13456543 313.22357422 5.23999023 313.47558594 C3 314 3 314 0 314 C0 300.14 0 286.28 0 272 C8.62584237 269.12471921 16.88662957 266.41885858 25.625 264.15234375 C31.0614845 262.73552409 36.46651915 261.20706319 41.875 259.6875 C42.92888916 259.39238525 43.98277832 259.09727051 45.06860352 258.79321289 C50.72575149 257.2074424 56.37866844 255.60788572 62.02734375 253.9921875 C63.16381348 253.66903564 64.3002832 253.34588379 65.47119141 253.01293945 C67.6583025 252.39081294 69.84423064 251.76450887 72.02880859 251.13354492 C73.01574707 250.85357666 74.00268555 250.5736084 75.01953125 250.28515625 C75.88682861 250.03644775 76.75412598 249.78773926 77.64770508 249.53149414 C80 249 80 249 84 249 C83.97797516 248.40425674 83.95595032 247.80851349 83.93325806 247.19471741 C83.72051133 235.97573586 84.91054581 224.84673634 85.8984375 213.68359375 C86.09573332 211.4178376 86.29271894 209.15205442 86.4894104 206.88624573 C86.90134724 202.15473668 87.3170097 197.42357387 87.73535156 192.69262695 C88.26916382 186.65245727 88.79366581 180.61152198 89.31537437 174.57029629 C89.71999906 169.89690774 90.12957137 165.22396273 90.54060745 160.55113411 C90.73586365 158.32469918 90.92961261 156.09813149 91.12177658 153.87142754 C91.39176537 150.75162932 91.66843567 147.6324904 91.94677734 144.51342773 C92.02374344 143.60870224 92.10070953 142.70397675 92.18000793 141.77183533 C92.76116579 135.37026125 93.83861371 129.38762461 95 123 C45.83 123 -3.34 123 -54 123 C-57 95 -57 95 -57 82 C-5.85 81.67 45.3 81.34 98 81 C98.99 69.78 99.98 58.56 101 47 C101.33 45.02 101.66 43.04 102 41 C68.34 41 34.68 41 0 41 C0 27.47 0 13.94 0 0 Z " fill="#F16529" transform="translate(256,144)"/>
<path d="M0 0 C67.32 0 134.64 0 204 0 C202.82051282 20.05128205 202.82051282 20.05128205 202 29.5 C201.9175 30.51191406 201.835 31.52382812 201.75 32.56640625 C201.6675 33.52417969 201.585 34.48195312 201.5 35.46875 C201.4278125 36.31888672 201.355625 37.16902344 201.28125 38.04492188 C201 40 201 40 200 41 C198.00038545 41.09672695 195.99729807 41.1218703 193.99534607 41.12025452 C192.03699326 41.12231651 192.03699326 41.12231651 190.03907776 41.12442017 C188.57870461 41.12088055 187.11833169 41.11724573 185.65795898 41.11352539 C184.13073732 41.11324353 182.60351553 41.11340123 181.07629395 41.1139679 C176.91738312 41.11425591 172.75850089 41.10835855 168.59959674 41.10139394 C164.25805476 41.09516106 159.91651219 41.09455665 155.57496643 41.09336853 C147.34786418 41.09025502 139.12077514 41.08204137 130.89367872 41.07201904 C121.52986936 41.06085851 112.16605938 41.05534761 102.80224502 41.05032361 C83.53482251 41.03985877 64.26741231 41.02225895 45 41 C45.09087891 41.95777344 45.18175781 42.91554687 45.27539062 43.90234375 C45.61459579 47.48777197 45.94887452 51.07364594 46.28173828 54.65966797 C46.42592189 56.20569047 46.57140527 57.75159238 46.71826172 59.29736328 C46.9302587 61.53126343 47.13743147 63.76556908 47.34375 66 C47.40937134 66.68054443 47.47499268 67.36108887 47.54260254 68.06225586 C47.97069666 72.76698445 48 77.23267687 48 82 C97.17 82 146.34 82 197 82 C197 83.65 197 85.3 197 87 C196.67 85.68 196.34 84.36 196 83 C164.98 83 133.96 83 102 83 C102 96.2 102 109.4 102 123 C71.64 123 41.28 123 10 123 C9.01 111.12 8.02 99.24 7 87 C6.19884434 77.68761185 6.19884434 77.68761185 5.38643837 68.37623978 C5.16258323 65.82621869 4.94005309 63.2760845 4.71781921 60.72592163 C4.08905098 53.51112784 3.45947629 46.29640703 2.82592773 39.08203125 C2.43121502 34.58628591 2.03901149 30.09032773 1.64845848 25.59421921 C1.50148112 23.90769661 1.35357273 22.22125486 1.20467567 20.53490067 C0.99906264 18.20527087 0.79665299 15.87538307 0.5949707 13.54541016 C0.53422867 12.86612961 0.47348663 12.18684906 0.41090393 11.48698425 C0.07995925 7.6187247 0 3.90163381 0 0 Z " fill="#EBE9E8" transform="translate(154,185)"/>
<path d="M0 0 C13.53 0 27.06 0 41 0 C41.99 10.56 42.98 21.12 44 32 C48.3003125 33.051875 48.3003125 33.051875 52.6875 34.125 C61.21858527 36.23424024 69.67293154 38.56139436 78.10620117 41.03173828 C78.93611572 41.2739209 79.76603027 41.51610352 80.62109375 41.765625 C81.3473999 41.97993164 82.07370605 42.19423828 82.82202148 42.41503906 C85.18845052 43.05061399 87.59728882 43.51945776 90 44 C89.67 57.86 89.34 71.72 89 86 C89.66 86.33 90.32 86.66 91 87 C84.86086783 86.415656 79.36603084 85.05271449 73.5 83.1875 C67.36330483 81.28783186 61.24586019 79.50433828 55 78 C48.06644388 76.32252674 41.27223161 74.30861148 34.45263672 72.21972656 C27.81109096 70.20168382 21.13460615 68.4662737 14.3828125 66.859375 C11.19014263 66.04830413 8.11766696 65.05796508 5 64 C4.28134508 56.49329117 3.57006583 48.98590898 2.86376953 41.47802734 C2.62293183 38.92708737 2.38044218 36.37630277 2.13623047 33.82568359 C1.78432672 30.14721216 1.43848161 26.46821218 1.09375 22.7890625 C0.92969666 21.09470566 0.92969666 21.09470566 0.7623291 19.36611938 C0.66222534 18.28575409 0.56212158 17.20538879 0.45898438 16.09228516 C0.37015991 15.15518707 0.28133545 14.21808899 0.18981934 13.25259399 C-0.06757351 8.84211381 0 4.41798444 0 0 Z " fill="#EAE9E9" transform="translate(167,329)"/>
<path d="M0 0 C33.66 0 67.32 0 102 0 C101.21484072 13.34770777 100.15830561 26.67948552 99 40 C66.33 40 33.66 40 0 40 C0 26.8 0 13.6 0 0 Z " fill="#FEFEFE" transform="translate(256,185)"/>
<path d="M0 0 C7.59 0 15.18 0 23 0 C28.28060183 6.88549063 31.36794083 12.10382249 34 20 C36.21968526 17.91547499 37.85715011 15.83625055 39.4453125 13.2421875 C39.88230469 12.53449219 40.31929688 11.82679687 40.76953125 11.09765625 C41.44048828 9.99744141 41.44048828 9.99744141 42.125 8.875 C43.02231283 7.41337145 43.92069448 5.95239835 44.8203125 4.4921875 C45.21492676 3.84620605 45.60954102 3.20022461 46.01611328 2.53466797 C47 1 47 1 48 0 C55.26 0 62.52 0 70 0 C70 20.79 70 41.58 70 63 C63.07 63 56.14 63 49 63 C48.67 54.09 48.34 45.18 48 36 C44.04 41.94 40.08 47.88 36 54 C32.14597331 52.07298666 31.4664134 51.69431695 29.421875 48.3046875 C29.02581055 47.65999512 28.62974609 47.01530273 28.22167969 46.35107422 C27.73602539 45.53396973 27.25037109 44.71686523 26.75 43.875 C24.39875 39.976875 24.39875 39.976875 22 36 C21.67 44.91 21.34 53.82 21 63 C14.07 63 7.14 63 0 63 C0 42.21 0 21.42 0 0 Z " fill="#000000" transform="translate(259,26)"/>
<path d="M0 0 C7.26 0 14.52 0 22 0 C22 6.93 22 13.86 22 21 C27.94 21 33.88 21 40 21 C40 14.07 40 7.14 40 0 C46.93 0 53.86 0 61 0 C61 20.79 61 41.58 61 63 C54.07 63 47.14 63 40 63 C40 56.07 40 49.14 40 42 C34.06 42 28.12 42 22 42 C22 48.93 22 55.86 22 63 C14.74 63 7.48 63 0 63 C0 42.21 0 21.42 0 0 Z " fill="#000000" transform="translate(123,26)"/>
<path d="M0 0 C46.53 0 93.06 0 141 0 C139.78038776 17.68437745 138.53833296 35.34379584 137 53 C102.14285714 65 102.14285714 65 91 65 C91 43.88 91 22.76 91 1 C60.97 1 30.94 1 0 1 C0 0.67 0 0.34 0 0 Z " fill="#F0662C" transform="translate(165,308)"/>
<path d="M0 0 C18.81 0 37.62 0 57 0 C57 13.53 57 27.06 57 41 C39.18 41 21.36 41 3 41 C2.505 36.648125 2.01 32.29625 1.5 27.8125 C1.34337891 26.46905518 1.18675781 25.12561035 1.02539062 23.74145508 C0.90357422 22.63697021 0.78175781 21.53248535 0.65625 20.39453125 C0.53056641 19.28956299 0.40488281 18.18459473 0.27539062 17.04614258 C-0.11050147 11.3764708 0 5.68278899 0 0 Z " fill="#E44D26" transform="translate(199,226)"/>
<path d="M0 0 C19.47 0 38.94 0 59 0 C59 7.26 59 14.52 59 22 C52.73 22 46.46 22 40 22 C40 35.53 40 49.06 40 63 C33.07 63 26.14 63 19 63 C19 49.47 19 35.94 19 22 C12.73 22 6.46 22 0 22 C0 14.74 0 7.48 0 0 Z " fill="#000000" transform="translate(192,26)"/>
<path d="M0 0 C7.26 0 14.52 0 22 0 C22 13.86 22 27.72 22 42 C31.57 42 41.14 42 51 42 C51 48.93 51 55.86 51 63 C34.17 63 17.34 63 0 63 C0 42.21 0 21.42 0 0 Z " fill="#000000" transform="translate(339,26)"/>
</svg>
